#!OML:ASF H:\Terrain\Patient Classification 1\Walking\liu\liu.ASF
:FULLY-SPECIFIED
:DEGREES
131
root 0.02 15.9545 27.4567 8.08356 0.1524 -4.87207
lowerback -3.18758 0.915893 1.58595
upperback -0.14154 1.1004 3.68498
thorax 1.59993 0.548764 2.94916
lowerneck -19.2526 -4.22373 -12.8322
upperneck 18.1177 -5.00906 13.0305
head 9.5682 -1.82467 6.03775
rclavicle -1.13307e-014 2.82274e-014
rhumerus -30.222 24.7185 -86.7601
rradius 44.9496
rwrist -21.7447
rhand -32.7424 -26.031
rfingers 7.12502
rthumb -5.96549 -55.9271
lclavicle -1.13307e-014 2.82274e-014
lhumerus -50.6631 -9.08541 95.2703
lradius 26.5797
lwrist 5.65452
lhand -12.8454 -21.0593
lfingers 7.12502
lthumb 13.2423 8.50009
rfemur -5.77709 4.07967 31.0114
rtibia 21.363
rfoot -18.424 5.31297
rtoes -2.60044
lfemur -42.0223 8.88737 -18.1838
ltibia 42.0545
lfoot -10.9169 11.799
ltoes -13.0725
132
root 0.02 15.9497 27.6573 8.26873 0.1524 -5.03755
lowerback -2.99743 0.921886 1.68791
upperback -0.306082 1.11767 3.79341
thorax 1.32335 0.558615 2.99849
lowerneck -19.8285 -4.28746 -12.6243
upperneck 18.878 -5.06047 12.6115
head 9.92969 -1.8617 5.8683
rclavicle -4.96962e-015 -1.03368e-014
rhumerus -29.8079 25.2901 -86.5476
rradius 45.3276
rwrist -21.7948
rhand -32.7063 -25.5752
rfingers 7.12502
rthumb -5.93066 -55.4722
lclavicle -4.96962e-015 -1.03368e-014
lhumerus -51.8547 -8.63991 95.1744
lradius 27.3648
lwrist 5.67649
lhand -13.0414 -15.7529
lfingers 7.12502
lthumb 13.0533 13.8186
rfemur -4.91869 3.59169 31.0857
rtibia 20.176
rfoot -17.5513 5.83665
rtoes -2.65801
lfemur -42.1972 8.44324 -17.9653
ltibia 38.8441
lfoot -10.5889 11.6565
ltoes -12.3474
133
root 0.0201 15.9451 27.858 8.43023 0.1524 -4.9833
lowerback -3.16439 1.0473 1.52985
upperback -0.262241 1.28251 3.75141
thorax 1.45294 0.639928 3.05511
lowerneck -20.4372 -4.38841 -11.8618
upperneck 19.347 -5.16604 11.6076
head 10.1714 -1.94696 5.36385
rclavicle 4.96962e-017 2.38542e-015
rhumerus -29.0579 25.7041 -86.3434
rradius 45.5358
rwrist -21.7203
rhand -32.4717 -23.8426
rfingers 7.12502
rthumb -5.70421 -53.7458
lclavicle 4.96962e-017 2.38542e-015
lhumerus -52.4237 -8.43372 95.0305
lradius 27.3322
lwrist 5.90039
lhand -14.8694 -13.2748
lfingers 7.12502
lthumb 11.2907 16.4013
rfemur -3.92501 3.82029 30.8883
rtibia 19.0486
rfoot -16.7888 6.22389
rtoes -1.68774
lfemur -42.1073 8.19392 -17.8523
ltibia 35.6023
lfoot -10.4734 11.4507
ltoes -11.0278
134
root 0.0201 15.9443 28.0586 8.49212 0.1524 -5.31032
lowerback -3.44662 1.24755 2.02383
upperback -0.0348017 1.51034 3.68364
thorax 1.85029 0.75649 2.72907
lowerneck -20.2496 -4.55409 -10.2684
upperneck 18.7096 -5.39797 9.65645
head 9.83196 -2.15819 4.32156
rclavicle -6.41081e-015 -3.81667e-014
rhumerus -28.0297 25.4989 -85.9694
rradius 45.7451
rwrist -21.6365
rhand -32.1587 -23.8756
rfingers 7.12502
rthumb -5.40195 -53.7868
lclavicle -6.41081e-015 -3.81667e-014
lhumerus -52.7486 -8.44989 94.6502
lradius 27.2847
lwrist 6.09266
lhand -12.3083 -15.829
lfingers 7.12502
lthumb 13.7599 13.696
rfemur -2.70506 3.74434 31.0843
rtibia 18.0624
rfoot -16.6082 6.4153
rtoes -2.42689
lfemur -41.7227 7.20028 -16.9187
ltibia 32.331
lfoot -10.6832 11.5902
ltoes -7.94126
135
root 0.0201 15.9529 28.2592 8.63415 0.1524 -5.75701
lowerback -3.72714 1.39917 2.68599
upperback 0.156773 1.66182 3.67856
thorax 2.21942 0.83894 2.37273
lowerneck -21.8934 -4.68158 -9.53798
upperneck 20.109 -5.5467 8.82908
head 10.6025 -2.22536 3.89726
rclavicle 7.95139e-016 -1.23246e-014
rhumerus -27.1126 25.3908 -85.592
rradius 46.1065
rwrist -21.651
rhand -31.5607 -24.1027
rfingers 7.12502
rthumb -4.82453 -54.0278
lclavicle 7.95139e-016 -1.23246e-014
lhumerus -52.9023 -8.22544 94.0838
lradius 27.0399
lwrist 5.87621
lhand -11.0598 -16.7999
lfingers 7.12502
lthumb 14.9629 12.6396
rfemur -1.61892 3.51252 31.3731
rtibia 17.2591
rfoot -16.5701 6.63535
rtoes -3.24764
lfemur -41.39 5.63122 -15.6114
ltibia 29.0891
lfoot -10.8739 11.9541
ltoes -5.08665
136
root 0.0201 15.9637 28.4599 8.74301 0.1524 -5.59189
lowerback -3.89151 1.50471 2.40761
upperback 0.157399 1.80848 3.62105
thorax 2.30232 0.909569 2.48265
lowerneck -20.7455 -4.5109 -11.387
upperneck 19.1677 -5.39691 11.429
head 10.1766 -2.02788 5.17467
rclavicle -2.08227e-014 -1.51076e-014
rhumerus -26.7717 25.6504 -85.459
rradius 46.6005
rwrist -21.5848
rhand -31.435 -23.5304
rfingers 7.12502
rthumb -4.70316 -53.4582
lclavicle -2.08227e-014 -1.51076e-014
lhumerus -53.0938 -7.40617 93.2571
lradius 26.3719
lwrist 5.0042
lhand -10.6245 -16.7464
lfingers 7.12502
lthumb 15.3822 12.6614
rfemur -0.60016 3.79236 31.0646
rtibia 16.4734
rfoot -16.4675 6.69753
rtoes -2.02651
lfemur -41.0889 4.93792 -15.3819
ltibia 26.0061
lfoot -10.5023 11.6076
ltoes -6.63097
137
root 0.0202 15.9642 28.6605 8.63193 0.1524 -5.37395
lowerback -3.6374 1.60014 1.93504
upperback 0.0422968 1.97443 3.60539
thorax 2.02137 0.987736 2.72916
lowerneck -22.3687 -4.61146 -11.1794
upperneck 21.1412 -5.42637 10.7905
head 11.1747 -2.05638 4.96079
rclavicle -1.44119e-014 -2.82274e-014
rhumerus -26.6528 25.8183 -85.3742
rradius 46.9382
rwrist -21.324
rhand -31.452 -23.2326
rfingers 7.12502
rthumb -4.71961 -53.16
lclavicle -1.44119e-014 -2.82274e-014
lhumerus -53.6664 -6.55645 92.5297
lradius 25.8765
lwrist 4.13918
lhand -10.4996 -16.8542
lfingers 7.12502
lthumb 15.5025 12.5443
rfemur 0.609555 4.28022 30.8259
rtibia 15.5631
rfoot -16.1454 6.37192
rtoes -1.8401
lfemur -40.6435 4.60289 -15.2665
ltibia 23.2688
lfoot -10.1944 10.8606
ltoes -8.47844
138
root 0.0202 15.9511 28.8611 8.65957 0.1524 -5.77489
lowerback -3.48822 1.6713 2.13389
upperback 0.0533962 2.06379 3.7644
thorax 1.94754 1.03351 2.78188
lowerneck -23.046 -4.50646 -10.9973
upperneck 21.7933 -5.26692 10.5977
head 11.5148 -1.9761 4.90699
rclavicle -9.0944e-015 -2.66371e-014
rhumerus -26.0085 26.083 -85.1125
rradius 47.0195
rwrist -21.1597
rhand -31.3221 -22.8449
rfingers 7.12502
rthumb -4.59415 -52.7751
lclavicle -9.0944e-015 -2.66371e-014
lhumerus -54.1595 -6.01176 92.1179
lradius 25.7736
lwrist 3.75429
lhand -10.277 -17.3695
lfingers 7.12502
lthumb 15.7169 12.0123
rfemur 1.71445 4.65973 31.2433
rtibia 14.4873
rfoot -15.3382 6.07043
rtoes -4.1821
lfemur -40.445 3.49723 -13.9508
ltibia 20.9343
lfoot -10.357 10.8839
ltoes -9.46532
139
root 0.0202 15.9318 29.0618 8.85998 0.1524 -6.52163
lowerback -3.59074 1.6792 2.96264
upperback 0.0776787 2.02936 3.90082
thorax 2.05556 1.02341 2.46175
lowerneck -22.9003 -4.30794 -10.7045
upperneck 21.6688 -5.14626 10.7754
head 11.4217 -1.87795 4.94151
rclavicle 1.59525e-014 -1.31198e-014
rhumerus -25.444 26.3879 -84.9886
rradius 47.2313
rwrist -21.2737
rhand -31.6483 -22.9557
rfingers 7.12502
rthumb -4.90918 -52.8788
lclavicle 1.59525e-014 -1.31198e-014
lhumerus -54.5424 -5.59803 91.5656
lradius 25.6777
lwrist 3.3649
lhand -9.61608 -18.2016
lfingers 7.12502
lthumb 16.3533 11.129
rfemur 2.62606 4.312 31.8769
rtibia 13.4593
rfoot -14.3554 6.35284
rtoes -5.89758
lfemur -40.5086 2.06096 -12.2062
ltibia 18.8601
lfoot -10.6896 11.2033
ltoes -11.7985
140
root 0.0203 15.925 29.2624 8.84315 0.1524 -7.02909
lowerback -3.48483 1.71852 3.70428
upperback 0.0808782 2.05516 3.94571
thorax 2.02385 1.04282 2.09192
lowerneck -22.5717 -4.33985 -10.8087
upperneck 21.524 -5.2313 10.973
head 11.3256 -1.90969 5.01477
rclavicle -2.13197e-014 -2.42517e-014
rhumerus -25.099 26.4237 -84.8511
rradius 47.3408
rwrist -21.205
rhand -31.1516 -22.0495
rfingers 7.12502
rthumb -4.42957 -51.9832
lclavicle -2.13197e-014 -2.42517e-014
lhumerus -54.9159 -5.00668 90.8644
lradius 25.3879
lwrist 2.92413
lhand -9.33812 -18.3843
lfingers 7.12502
lthumb 16.6209 10.924
rfemur 3.66712 3.56099 32.1188
rtibia 12.7612
rfoot -13.5328 6.99285
rtoes -4.71049
lfemur -40.1378 0.750281 -10.866
ltibia 16.8226
lfoot -10.6202 11.6168
ltoes -13.5731
